<?xml version="1.0"?>
<svg id="_レイヤー_2" data-name="レイヤー 2" xmlns="http://www.w3.org/2000/svg" viewBox="0 0 325.8 135">
  <g id="_レイヤー_1-2" data-name="レイヤー 1" fill="#262A30">
    <g>
      <g>
        <path d="M87.55,127.78c-3.23,3.63-7.04,5.45-11.42,5.45-3.11,0-5.54-.75-7.27-2.25-1.73-1.5-3-3.37-3.81-5.62-.81-2.25-1.33-4.73-1.56-7.44-.23-2.71-.35-5.22-.35-7.53v-6.06c0-1.5-.06-3.17-.17-5.02,0-3.34-.84-5.97-2.51-7.87-1.67-1.9-3.69-3.31-6.06-4.24-2.37-.92-4.84-1.47-7.44-1.64s-4.82-.26-6.66-.26c-2.65,0-4.58-.63-5.8-1.9-1.21-1.27-1.82-2.71-1.82-4.33s.61-3.05,1.82-4.33c1.21-1.27,3.08-1.9,5.62-1.9,7.27,0,13.61-1.18,19.03-3.55,5.42-2.36,9.92-5.42,13.5-9.17,3.57-3.75,6.23-7.99,7.96-12.72,1.73-4.73,2.6-9.4,2.6-14.01,0-3.92-.61-7.67-1.82-11.25-1.21-3.57-2.97-6.75-5.28-9.52-2.31-2.77-5.22-4.99-8.74-6.66-3.52-1.67-7.53-2.51-12.03-2.51-4.04,0-7.99.75-11.85,2.25-3.87,1.5-7.33,3.61-10.38,6.32-3.06,2.71-5.54,5.97-7.44,9.78-1.9,3.81-2.85,8.08-2.85,12.8v86.86c0,3.35-.67,5.91-1.99,7.7-1.33,1.79-2.8,2.68-4.41,2.68-1.27,0-2.42-.67-3.46-1.99-1.04-1.32-1.56-3.43-1.56-6.31V39.45c0-1.04-.41-1.56-1.21-1.56-.23,0-.69.2-1.38.61-.69.41-1.47.81-2.34,1.21-.87.41-1.76.81-2.68,1.21-.92.41-1.67.61-2.25.61-.69,0-1.12-.11-1.3-.35-.17-.23-.26-.63-.26-1.21s.2-.98.61-1.21c.4-.23,1.07-.58,1.99-1.04,1.27-.58,2.74-1.33,4.41-2.25,1.67-.92,2.91-1.73,3.72-2.42.11-.11.29-.23.52-.35.46-.23.87-.35,1.21-.35.69,0,1.04.46,1.04,1.38v5.02c0,2.66.03,5.97.09,9.95.06,3.98.09,8.39.09,13.24v55.71c0,.58.03,1.41.09,2.51.06,1.1.23,2.19.52,3.29.29,1.1.66,2.05,1.12,2.85.46.81,1.04,1.21,1.73,1.21,1.61,0,2.6-1.04,2.94-3.12.35-2.08.52-4.09.52-6.06V36.16c0-5.54,1.07-10.52,3.2-14.97,2.13-4.44,4.96-8.25,8.48-11.42,3.52-3.17,7.5-5.59,11.94-7.27,4.44-1.67,8.91-2.51,13.41-2.51,5.19,0,9.75.87,13.67,2.6,3.92,1.73,7.18,4.04,9.78,6.92,2.6,2.88,4.53,6.2,5.8,9.95,1.27,3.75,1.9,7.7,1.9,11.85,0,5.19-1.01,10.38-3.03,15.57-2.02,5.19-5.02,9.86-9,14.02-3.98,4.15-8.97,7.56-14.97,10.21-6,2.66-12.98,3.98-20.94,3.98-1.62,0-2.77.41-3.46,1.21-.69.81-1.04,1.73-1.04,2.77,0,1.15.4,2.11,1.21,2.86.81.75,2.19,1.12,4.15,1.12,2.88,0,5.74.15,8.56.43,2.82.29,5.36.98,7.61,2.08,2.25,1.1,4.09,2.68,5.54,4.76,1.44,2.08,2.16,4.9,2.16,8.48.11,2.08.17,3.98.17,5.71v7.79c0,2.42.17,4.7.52,6.83.35,2.14.92,4.04,1.73,5.71.81,1.67,1.93,3,3.37,3.98,1.44.98,3.31,1.47,5.62,1.47,1.38,0,2.85-.29,4.41-.86,1.56-.58,3-1.53,4.33-2.86,1.32-1.32,2.45-3.08,3.37-5.28.92-2.19,1.38-4.84,1.38-7.96v-1.9c0-.81.35-1.21,1.04-1.21.58,0,.87.12.87.35v1.73c0,6.69-1.62,11.85-4.84,15.49Z"></path>
        <path d="M101.05,80.8c0,1.5-.46,2.85-1.38,4.07-.92,1.21-2.37,1.82-4.33,1.82-1.62,0-2.83-.58-3.63-1.73-.81-1.15-1.21-2.42-1.21-3.81,0-1.61.46-3.11,1.38-4.5.92-1.38,2.36-2.08,4.33-2.08,1.61,0,2.83.63,3.63,1.9.81,1.27,1.21,2.71,1.21,4.33ZM121.9,127.52c-3.17,3.46-6.95,5.19-11.33,5.19-3.35,0-5.91-.75-7.7-2.25-1.79-1.5-3.09-3.4-3.89-5.71-.81-2.31-1.24-4.79-1.3-7.44-.06-2.65-.12-5.13-.17-7.44-.06-2.31-.2-4.21-.43-5.71-.23-1.5-.87-2.25-1.9-2.25-1.27,0-2.05.75-2.34,2.25-.29,1.5-.43,3.63-.43,6.4,0,.92-.35,1.38-1.04,1.38-.58,0-.86-.46-.86-1.38,0-1.27.06-2.65.17-4.15.11-1.5.35-2.91.69-4.24.35-1.32.89-2.42,1.64-3.29.75-.87,1.76-1.3,3.03-1.3,1.5,0,2.45.81,2.85,2.42.4,1.62.63,3.63.69,6.06.06,2.42.09,5.05.09,7.87s.35,5.45,1.04,7.87c.69,2.42,1.82,4.44,3.37,6.06,1.56,1.62,3.95,2.42,7.18,2.42,1.38,0,2.85-.29,4.41-.86,1.56-.58,3-1.53,4.33-2.86,1.32-1.32,2.45-3.08,3.37-5.28.92-2.19,1.38-4.84,1.38-7.96v-2.42c0-.69.35-1.04,1.04-1.04.58,0,.87.23.87.69v1.73c0,6.69-1.59,11.77-4.76,15.23ZM98.97,80.8c0-.92-.26-1.73-.78-2.42-.52-.69-1.3-1.04-2.34-1.04s-1.82.35-2.34,1.04c-.52.69-.78,1.5-.78,2.42s.26,1.7.78,2.34c.52.63,1.3.95,2.34.95,1.15,0,1.96-.35,2.42-1.04.46-.69.69-1.44.69-2.25Z"></path>
        <path d="M159.7,122.76c-1.38,3.06-3.06,5.51-5.02,7.35-1.62,1.61-3.63,2.74-6.06,3.37-2.42.63-4.96.95-7.61.95-3.81,0-7.33-.58-10.55-1.73-3.23-1.15-5.25-2.54-6.06-4.15-.12-.23-.17-.58-.17-1.04,0-.23.11-.61.35-1.12.23-.52.63-.78,1.21-.78.46,0,.81.15,1.04.43.23.29.46.55.69.78.23.35.89.98,1.99,1.9,1.1.92,2.57,1.38,4.41,1.38,1.73,0,3.03-.52,3.89-1.56.87-1.04,1.3-2.36,1.3-3.98,0-2.65-1.12-5.85-3.37-9.6-2.25-3.75-5.68-7.35-10.29-10.81.23.58.46,1.15.69,1.73.35,1.04.52,2.54.52,4.5,0,.92-.41,1.38-1.21,1.38-.46,0-.69-.17-.69-.52,0-1.27-.09-2.42-.26-3.46-.17-1.04-.72-2.31-1.64-3.81-.35-.58-.75-1.01-1.21-1.3-.46-.29-.92-.58-1.38-.87-.46-.29-.87-.61-1.21-.95-.35-.35-.52-.81-.52-1.38,0-.46.12-.92.35-1.38.23-.46.58-.69,1.04-.69.58,0,1.04.17,1.38.52,2.31,1.5,4.7,3.35,7.18,5.54,2.48,2.19,4.73,4.5,6.75,6.92,2.02,2.42,3.69,4.82,5.02,7.18,1.32,2.37,1.99,4.58,1.99,6.66,0,3.11-1.67,5.42-5.02,6.92,1.96.35,3.69.52,5.19.52,3.11,0,5.77-.52,7.96-1.56,2.19-1.04,4.01-2.39,5.45-4.07,1.44-1.67,2.48-3.6,3.11-5.8.63-2.19.95-4.5.95-6.92v-1.9c0-.81.35-1.21,1.04-1.21.58,0,.86.12.86.35v1.73c0,3.92-.69,7.41-2.08,10.47Z"></path>
        <path d="M216.45,127.61c-3.23,3.52-7.04,5.28-11.42,5.28-3.58,0-6.26-.75-8.05-2.25-1.79-1.5-3.03-3.4-3.72-5.71-.69-2.31-1.1-4.79-1.21-7.44-.12-2.65-.32-5.13-.61-7.44-.29-2.31-.87-4.21-1.73-5.71-.87-1.5-2.45-2.25-4.76-2.25-1.38,0-2.62.58-3.72,1.73-1.1,1.16-1.64,2.94-1.64,5.36v12.28c0,1.27-.09,2.57-.26,3.89-.17,1.33-.46,2.57-.86,3.72-.41,1.15-.98,2.08-1.73,2.77-.75.69-1.7,1.04-2.85,1.04s-2.08-.35-2.77-1.04c-.69-.69-1.24-1.62-1.64-2.77-.41-1.15-.69-2.39-.86-3.72-.17-1.33-.26-2.62-.26-3.89V15.23c0-1.27-.35-2.22-1.04-2.85-.69-.63-1.44-.95-2.25-.95-.92,0-1.7.35-2.34,1.04-.64.69-.95,1.73-.95,3.11v94.99c0,.92-.41,1.38-1.21,1.38-.46,0-.69-.46-.69-1.38V16.09c0-2.54.35-4.64,1.04-6.32.69-1.67,2.19-2.51,4.5-2.51,2.08,0,3.52.81,4.33,2.42.81,1.62,1.21,3.58,1.21,5.88v6.75c0,2.54-.03,6.12-.09,10.73-.06,4.62-.09,10.79-.09,18.51v68.86c0,.23.03.78.09,1.64.06.86.17,1.76.35,2.68.17.92.46,1.76.87,2.51.4.75.95,1.12,1.64,1.12s1.27-.37,1.73-1.12c.46-.75.78-1.58.95-2.51.17-.92.32-1.82.43-2.68.11-.87.17-1.41.17-1.64v-11.94c0-.58.06-1.38.17-2.42.11-1.04.46-2.08,1.04-3.11.58-1.04,1.44-1.96,2.6-2.77,1.15-.81,2.77-1.21,4.84-1.21,2.77,0,4.73.78,5.88,2.34,1.15,1.56,1.93,3.49,2.34,5.8.4,2.31.66,4.82.78,7.53.11,2.71.46,5.22,1.04,7.53.58,2.31,1.61,4.24,3.11,5.8,1.5,1.56,3.86,2.33,7.09,2.33,1.38,0,2.85-.29,4.41-.86,1.56-.58,3-1.53,4.33-2.86,1.32-1.32,2.45-3.08,3.37-5.28.92-2.19,1.38-4.84,1.38-7.96v-1.9c0-.81.35-1.21,1.04-1.21.58,0,.87.12.87.35v1.73c0,6.69-1.62,11.8-4.84,15.31Z"></path>
        <path d="M273.11,127.52c-3.17,3.46-6.95,5.19-11.33,5.19-3.35,0-5.91-.75-7.7-2.25-1.79-1.5-3.09-3.4-3.89-5.71-.81-2.31-1.24-4.79-1.3-7.44-.06-2.65-.12-5.13-.17-7.44-.06-2.31-.2-4.21-.43-5.71-.23-1.5-.87-2.25-1.9-2.25-1.27,0-2.05.98-2.34,2.94-.29,1.96-.43,4.33-.43,7.09,0,3.46-.41,6.43-1.21,8.91-.81,2.48-1.88,4.53-3.2,6.14-1.33,1.62-2.83,2.83-4.5,3.63-1.67.81-3.37,1.21-5.1,1.21-3.81,0-6.66-1.38-8.56-4.15s-2.85-6-2.85-9.69c0-2.31.37-4.61,1.12-6.92.75-2.31,1.87-4.41,3.37-6.32,1.5-1.9,3.34-3.43,5.54-4.58,2.19-1.15,4.73-1.73,7.61-1.73,1.61,0,2.88.12,3.81.35.81.12,1.21.75,1.21,1.9,0,.46-.2.81-.61,1.04-.41.23-.72.35-.95.35h-2.08c-2.65,0-4.99.46-7.01,1.38-2.02.92-3.69,2.11-5.02,3.55-1.33,1.44-2.34,3.09-3.03,4.93-.69,1.85-1.04,3.69-1.04,5.54,0,2.88.87,5.45,2.6,7.7,1.73,2.25,4.27,3.37,7.61,3.37,2.54,0,4.84-1.27,6.92-3.81,2.08-2.54,3.23-6.8,3.46-12.8.11-1.84.2-3.63.26-5.36.06-1.73.26-3.4.61-5.02.11-.81.55-1.67,1.3-2.6.75-.92,1.87-1.38,3.37-1.38s2.45.81,2.85,2.42c.4,1.62.63,3.63.69,6.06.06,2.42.09,5.05.09,7.87s.35,5.45,1.04,7.87c.69,2.42,1.82,4.44,3.37,6.06,1.56,1.62,3.95,2.42,7.18,2.42,1.38,0,2.85-.29,4.41-.86,1.56-.58,3-1.53,4.33-2.86,1.32-1.32,2.45-3.08,3.37-5.28.92-2.19,1.38-4.84,1.38-7.96v-1.9c0-.81.35-1.21,1.04-1.21.58,0,.87.12.87.35v1.73c0,6.69-1.59,11.77-4.76,15.23Z"></path>
        <path d="M325.8,110.56c0,6.58-1.44,11.36-4.33,14.36-2.88,3-6.17,4.5-9.86,4.5-4.04,0-7.67-1.5-10.9-4.5-1.38,2.31-3.17,4.21-5.36,5.71-2.19,1.5-4.67,2.25-7.44,2.25-4.5,0-7.79-1.5-9.86-4.5-2.08-3-3.11-6.51-3.11-10.55,0-2.42.37-4.87,1.12-7.35.75-2.48,1.82-4.73,3.2-6.75,1.38-2.02,3.08-3.63,5.1-4.84,2.02-1.21,4.3-1.82,6.83-1.82,4.5,0,7.79,1.5,9.86,4.5,2.08,3,3.11,6.52,3.11,10.55,0,3.69-.81,7.27-2.42,10.73,2.77,2.88,6,4.33,9.69,4.33,3.23,0,6.11-1.24,8.65-3.72,2.54-2.48,3.81-6.49,3.81-12.03,0-.92.4-1.38,1.21-1.38.46,0,.69.17.69.52ZM299.15,123.54c-1.62-1.96-2.94-4.27-3.98-6.92-1.04-2.65-1.56-5.65-1.56-9,0-1.96.17-4.04.52-6.23-1.04-.46-2.37-.69-3.98-.69-2.08,0-3.89.43-5.45,1.3-1.56.87-2.85,2.02-3.89,3.46-1.04,1.44-1.82,3.06-2.34,4.84-.52,1.79-.78,3.61-.78,5.45,0,3.58.95,6.78,2.85,9.6,1.9,2.83,4.76,4.24,8.56,4.24,2.31,0,4.3-.55,5.97-1.64,1.67-1.1,3.03-2.57,4.07-4.41ZM301.58,114.02c0-2.31-.43-4.47-1.3-6.49-.86-2.02-2.11-3.66-3.72-4.93-.23.92-.35,1.73-.35,2.42v2.25c0,5.77,1.38,10.38,4.15,13.84.81-2.08,1.21-4.44,1.21-7.09Z"></path>
      </g>
    </g>
  </g>
</svg>